<mxfile host="Electron" modified="2023-05-27T14:06:51.754Z" agent="Mozilla/5.0 (Macintosh; Intel Mac OS X 10_15_7) AppleWebKit/537.36 (KHTML, like Gecko) draw.io/21.2.1 Chrome/112.0.5615.87 Electron/24.1.2 Safari/537.36" etag="vwK3jue5drcvTT685MlR" version="21.2.1" type="device">
  <diagram name="Page-1" id="H1nZVYqxkzLZFgEqRADx">
    <mxGraphModel dx="1173" dy="2378" grid="1" gridSize="10" guides="1" tooltips="1" connect="1" arrows="1" fold="1" page="1" pageScale="1" pageWidth="850" pageHeight="1100" math="0" shadow="0">
      <root>
        <mxCell id="0" />
        <mxCell id="1" parent="0" />
        <mxCell id="AsBp8XiL8Dx4Y6rQVwFH-4473" value="R, W: 103, H: 72, ORDER: 16, GC: {29, 15, 9, 11, 7, 2, 14, 1, 39, 13, 8, 21, 6, 33, 43, 27} " style="text;html=1;strokeColor=none;fillColor=none;align=center;verticalAlign=middle;whiteSpace=wrap;rounded=0;" parent="1" vertex="1">
          <mxGeometry x="50" width="1030" height="30" as="geometry" />
        </mxCell>
        <mxCell id="AsBp8XiL8Dx4Y6rQVwFH-4558" value="R, W: 103, H: 96, ORDER: 16, GC: {39, 21, 17, 26, 6, 11, 18, 3, 1, 5, 4, 2, 24, 22, 57, 46} " style="text;html=1;strokeColor=none;fillColor=none;align=center;verticalAlign=middle;whiteSpace=wrap;rounded=0;" parent="1" vertex="1">
          <mxGeometry x="50" y="850" width="1030" height="30" as="geometry" />
        </mxCell>
        <mxCell id="AsBp8XiL8Dx4Y6rQVwFH-4643" value="R, W: 103, H: 74, ORDER: 16, GC: {33, 20, 27, 13, 7, 23, 4, 19, 6, 17, 15, 2, 32, 41, 11, 30} " style="text;html=1;strokeColor=none;fillColor=none;align=center;verticalAlign=middle;whiteSpace=wrap;rounded=0;" parent="1" vertex="1">
          <mxGeometry x="55" y="1970" width="1030" height="30" as="geometry" />
        </mxCell>
        <mxCell id="48Amk8JEZeWpcJgRUddv-1" value="" style="group;flipV=1;" vertex="1" connectable="0" parent="1">
          <mxGeometry x="50" y="50" width="1030" height="720" as="geometry" />
        </mxCell>
        <mxCell id="761dnnyQ54j-Cl0NHfQN-4474" value="29" style="rounded=0;whiteSpace=wrap;html=1;" parent="48Amk8JEZeWpcJgRUddv-1" vertex="1">
          <mxGeometry y="430" width="290" height="290" as="geometry" />
        </mxCell>
        <mxCell id="761dnnyQ54j-Cl0NHfQN-4475" value="15" style="rounded=0;whiteSpace=wrap;html=1;" parent="48Amk8JEZeWpcJgRUddv-1" vertex="1">
          <mxGeometry x="290" y="570" width="150" height="150" as="geometry" />
        </mxCell>
        <mxCell id="761dnnyQ54j-Cl0NHfQN-4476" value="9" style="rounded=0;whiteSpace=wrap;html=1;" parent="48Amk8JEZeWpcJgRUddv-1" vertex="1">
          <mxGeometry x="440" y="630" width="90" height="90" as="geometry" />
        </mxCell>
        <mxCell id="761dnnyQ54j-Cl0NHfQN-4477" value="11" style="rounded=0;whiteSpace=wrap;html=1;" parent="48Amk8JEZeWpcJgRUddv-1" vertex="1">
          <mxGeometry x="530" y="610" width="110" height="110" as="geometry" />
        </mxCell>
        <mxCell id="761dnnyQ54j-Cl0NHfQN-4478" value="7" style="rounded=0;whiteSpace=wrap;html=1;" parent="48Amk8JEZeWpcJgRUddv-1" vertex="1">
          <mxGeometry x="440" y="560" width="70" height="70" as="geometry" />
        </mxCell>
        <mxCell id="761dnnyQ54j-Cl0NHfQN-4479" value="2" style="rounded=0;whiteSpace=wrap;html=1;" parent="48Amk8JEZeWpcJgRUddv-1" vertex="1">
          <mxGeometry x="510" y="610" width="20" height="20" as="geometry" />
        </mxCell>
        <mxCell id="761dnnyQ54j-Cl0NHfQN-4480" value="14" style="rounded=0;whiteSpace=wrap;html=1;" parent="48Amk8JEZeWpcJgRUddv-1" vertex="1">
          <mxGeometry x="290" y="430" width="140" height="140" as="geometry" />
        </mxCell>
        <mxCell id="761dnnyQ54j-Cl0NHfQN-4481" value="1" style="rounded=0;whiteSpace=wrap;html=1;" parent="48Amk8JEZeWpcJgRUddv-1" vertex="1">
          <mxGeometry x="430" y="560" width="10" height="10" as="geometry" />
        </mxCell>
        <mxCell id="761dnnyQ54j-Cl0NHfQN-4482" value="39" style="rounded=0;whiteSpace=wrap;html=1;" parent="48Amk8JEZeWpcJgRUddv-1" vertex="1">
          <mxGeometry x="640" y="330" width="390" height="390" as="geometry" />
        </mxCell>
        <mxCell id="761dnnyQ54j-Cl0NHfQN-4483" value="13" style="rounded=0;whiteSpace=wrap;html=1;" parent="48Amk8JEZeWpcJgRUddv-1" vertex="1">
          <mxGeometry x="510" y="480" width="130" height="130" as="geometry" />
        </mxCell>
        <mxCell id="761dnnyQ54j-Cl0NHfQN-4484" value="8" style="rounded=0;whiteSpace=wrap;html=1;" parent="48Amk8JEZeWpcJgRUddv-1" vertex="1">
          <mxGeometry x="430" y="480" width="80" height="80" as="geometry" />
        </mxCell>
        <mxCell id="761dnnyQ54j-Cl0NHfQN-4485" value="21" style="rounded=0;whiteSpace=wrap;html=1;" parent="48Amk8JEZeWpcJgRUddv-1" vertex="1">
          <mxGeometry x="430" y="270" width="210" height="210" as="geometry" />
        </mxCell>
        <mxCell id="761dnnyQ54j-Cl0NHfQN-4486" value="6" style="rounded=0;whiteSpace=wrap;html=1;" parent="48Amk8JEZeWpcJgRUddv-1" vertex="1">
          <mxGeometry x="640" y="270" width="60" height="60" as="geometry" />
        </mxCell>
        <mxCell id="761dnnyQ54j-Cl0NHfQN-4487" value="33" style="rounded=0;whiteSpace=wrap;html=1;" parent="48Amk8JEZeWpcJgRUddv-1" vertex="1">
          <mxGeometry x="700" width="330" height="330" as="geometry" />
        </mxCell>
        <mxCell id="761dnnyQ54j-Cl0NHfQN-4488" value="43" style="rounded=0;whiteSpace=wrap;html=1;" parent="48Amk8JEZeWpcJgRUddv-1" vertex="1">
          <mxGeometry width="430" height="430" as="geometry" />
        </mxCell>
        <mxCell id="761dnnyQ54j-Cl0NHfQN-4489" value="27" style="rounded=0;whiteSpace=wrap;html=1;" parent="48Amk8JEZeWpcJgRUddv-1" vertex="1">
          <mxGeometry x="430" width="270" height="270" as="geometry" />
        </mxCell>
        <mxCell id="48Amk8JEZeWpcJgRUddv-2" value="" style="group;flipV=1;" vertex="1" connectable="0" parent="1">
          <mxGeometry x="50" y="900" width="1030" height="960" as="geometry" />
        </mxCell>
        <mxCell id="761dnnyQ54j-Cl0NHfQN-4559" value="39" style="rounded=0;whiteSpace=wrap;html=1;" parent="48Amk8JEZeWpcJgRUddv-2" vertex="1">
          <mxGeometry y="570" width="390" height="390" as="geometry" />
        </mxCell>
        <mxCell id="761dnnyQ54j-Cl0NHfQN-4560" value="21" style="rounded=0;whiteSpace=wrap;html=1;" parent="48Amk8JEZeWpcJgRUddv-2" vertex="1">
          <mxGeometry x="390" y="750" width="210" height="210" as="geometry" />
        </mxCell>
        <mxCell id="761dnnyQ54j-Cl0NHfQN-4561" value="17" style="rounded=0;whiteSpace=wrap;html=1;" parent="48Amk8JEZeWpcJgRUddv-2" vertex="1">
          <mxGeometry x="600" y="790" width="170" height="170" as="geometry" />
        </mxCell>
        <mxCell id="761dnnyQ54j-Cl0NHfQN-4562" value="26" style="rounded=0;whiteSpace=wrap;html=1;" parent="48Amk8JEZeWpcJgRUddv-2" vertex="1">
          <mxGeometry x="770" y="700" width="260" height="260" as="geometry" />
        </mxCell>
        <mxCell id="761dnnyQ54j-Cl0NHfQN-4563" value="6" style="rounded=0;whiteSpace=wrap;html=1;" parent="48Amk8JEZeWpcJgRUddv-2" vertex="1">
          <mxGeometry x="600" y="730" width="60" height="60" as="geometry" />
        </mxCell>
        <mxCell id="761dnnyQ54j-Cl0NHfQN-4564" value="11" style="rounded=0;whiteSpace=wrap;html=1;" parent="48Amk8JEZeWpcJgRUddv-2" vertex="1">
          <mxGeometry x="660" y="680" width="110" height="110" as="geometry" />
        </mxCell>
        <mxCell id="761dnnyQ54j-Cl0NHfQN-4565" value="18" style="rounded=0;whiteSpace=wrap;html=1;" parent="48Amk8JEZeWpcJgRUddv-2" vertex="1">
          <mxGeometry x="390" y="570" width="180" height="180" as="geometry" />
        </mxCell>
        <mxCell id="761dnnyQ54j-Cl0NHfQN-4566" value="3" style="rounded=0;whiteSpace=wrap;html=1;" parent="48Amk8JEZeWpcJgRUddv-2" vertex="1">
          <mxGeometry x="570" y="720" width="30" height="30" as="geometry" />
        </mxCell>
        <mxCell id="761dnnyQ54j-Cl0NHfQN-4567" value="1" style="rounded=0;whiteSpace=wrap;html=1;" parent="48Amk8JEZeWpcJgRUddv-2" vertex="1">
          <mxGeometry x="600" y="720" width="10" height="10" as="geometry" />
        </mxCell>
        <mxCell id="761dnnyQ54j-Cl0NHfQN-4568" value="5" style="rounded=0;whiteSpace=wrap;html=1;" parent="48Amk8JEZeWpcJgRUddv-2" vertex="1">
          <mxGeometry x="610" y="680" width="50" height="50" as="geometry" />
        </mxCell>
        <mxCell id="761dnnyQ54j-Cl0NHfQN-4569" value="4" style="rounded=0;whiteSpace=wrap;html=1;" parent="48Amk8JEZeWpcJgRUddv-2" vertex="1">
          <mxGeometry x="570" y="680" width="40" height="40" as="geometry" />
        </mxCell>
        <mxCell id="761dnnyQ54j-Cl0NHfQN-4570" value="2" style="rounded=0;whiteSpace=wrap;html=1;" parent="48Amk8JEZeWpcJgRUddv-2" vertex="1">
          <mxGeometry x="770" y="680" width="20" height="20" as="geometry" />
        </mxCell>
        <mxCell id="761dnnyQ54j-Cl0NHfQN-4571" value="24" style="rounded=0;whiteSpace=wrap;html=1;" parent="48Amk8JEZeWpcJgRUddv-2" vertex="1">
          <mxGeometry x="790" y="460" width="240" height="240" as="geometry" />
        </mxCell>
        <mxCell id="761dnnyQ54j-Cl0NHfQN-4572" value="22" style="rounded=0;whiteSpace=wrap;html=1;" parent="48Amk8JEZeWpcJgRUddv-2" vertex="1">
          <mxGeometry x="570" y="460" width="220" height="220" as="geometry" />
        </mxCell>
        <mxCell id="761dnnyQ54j-Cl0NHfQN-4573" value="57" style="rounded=0;whiteSpace=wrap;html=1;" parent="48Amk8JEZeWpcJgRUddv-2" vertex="1">
          <mxGeometry width="570" height="570" as="geometry" />
        </mxCell>
        <mxCell id="761dnnyQ54j-Cl0NHfQN-4574" value="46" style="rounded=0;whiteSpace=wrap;html=1;" parent="48Amk8JEZeWpcJgRUddv-2" vertex="1">
          <mxGeometry x="570" width="460" height="460" as="geometry" />
        </mxCell>
        <mxCell id="48Amk8JEZeWpcJgRUddv-3" value="" style="group;flipV=1;" vertex="1" connectable="0" parent="1">
          <mxGeometry x="55" y="2020" width="1030" height="740" as="geometry" />
        </mxCell>
        <mxCell id="761dnnyQ54j-Cl0NHfQN-4644" value="33" style="rounded=0;whiteSpace=wrap;html=1;" parent="48Amk8JEZeWpcJgRUddv-3" vertex="1">
          <mxGeometry y="410" width="330" height="330" as="geometry" />
        </mxCell>
        <mxCell id="761dnnyQ54j-Cl0NHfQN-4645" value="20" style="rounded=0;whiteSpace=wrap;html=1;" parent="48Amk8JEZeWpcJgRUddv-3" vertex="1">
          <mxGeometry x="330" y="540" width="200" height="200" as="geometry" />
        </mxCell>
        <mxCell id="761dnnyQ54j-Cl0NHfQN-4646" value="27" style="rounded=0;whiteSpace=wrap;html=1;" parent="48Amk8JEZeWpcJgRUddv-3" vertex="1">
          <mxGeometry x="530" y="470" width="270" height="270" as="geometry" />
        </mxCell>
        <mxCell id="761dnnyQ54j-Cl0NHfQN-4647" value="13" style="rounded=0;whiteSpace=wrap;html=1;" parent="48Amk8JEZeWpcJgRUddv-3" vertex="1">
          <mxGeometry x="330" y="410" width="130" height="130" as="geometry" />
        </mxCell>
        <mxCell id="761dnnyQ54j-Cl0NHfQN-4648" value="7" style="rounded=0;whiteSpace=wrap;html=1;" parent="48Amk8JEZeWpcJgRUddv-3" vertex="1">
          <mxGeometry x="460" y="470" width="70" height="70" as="geometry" />
        </mxCell>
        <mxCell id="761dnnyQ54j-Cl0NHfQN-4649" value="23" style="rounded=0;whiteSpace=wrap;html=1;" parent="48Amk8JEZeWpcJgRUddv-3" vertex="1">
          <mxGeometry x="800" y="510" width="230" height="230" as="geometry" />
        </mxCell>
        <mxCell id="761dnnyQ54j-Cl0NHfQN-4650" value="4" style="rounded=0;whiteSpace=wrap;html=1;" parent="48Amk8JEZeWpcJgRUddv-3" vertex="1">
          <mxGeometry x="800" y="470" width="40" height="40" as="geometry" />
        </mxCell>
        <mxCell id="761dnnyQ54j-Cl0NHfQN-4651" value="19" style="rounded=0;whiteSpace=wrap;html=1;" parent="48Amk8JEZeWpcJgRUddv-3" vertex="1">
          <mxGeometry x="840" y="320" width="190" height="190" as="geometry" />
        </mxCell>
        <mxCell id="761dnnyQ54j-Cl0NHfQN-4652" value="6" style="rounded=0;whiteSpace=wrap;html=1;" parent="48Amk8JEZeWpcJgRUddv-3" vertex="1">
          <mxGeometry x="460" y="410" width="60" height="60" as="geometry" />
        </mxCell>
        <mxCell id="761dnnyQ54j-Cl0NHfQN-4653" value="17" style="rounded=0;whiteSpace=wrap;html=1;" parent="48Amk8JEZeWpcJgRUddv-3" vertex="1">
          <mxGeometry x="520" y="300" width="170" height="170" as="geometry" />
        </mxCell>
        <mxCell id="761dnnyQ54j-Cl0NHfQN-4654" value="15" style="rounded=0;whiteSpace=wrap;html=1;" parent="48Amk8JEZeWpcJgRUddv-3" vertex="1">
          <mxGeometry x="690" y="320" width="150" height="150" as="geometry" />
        </mxCell>
        <mxCell id="761dnnyQ54j-Cl0NHfQN-4655" value="2" style="rounded=0;whiteSpace=wrap;html=1;" parent="48Amk8JEZeWpcJgRUddv-3" vertex="1">
          <mxGeometry x="690" y="300" width="20" height="20" as="geometry" />
        </mxCell>
        <mxCell id="761dnnyQ54j-Cl0NHfQN-4656" value="32" style="rounded=0;whiteSpace=wrap;html=1;" parent="48Amk8JEZeWpcJgRUddv-3" vertex="1">
          <mxGeometry x="710" width="320" height="320" as="geometry" />
        </mxCell>
        <mxCell id="761dnnyQ54j-Cl0NHfQN-4657" value="41" style="rounded=0;whiteSpace=wrap;html=1;" parent="48Amk8JEZeWpcJgRUddv-3" vertex="1">
          <mxGeometry width="410" height="410" as="geometry" />
        </mxCell>
        <mxCell id="761dnnyQ54j-Cl0NHfQN-4658" value="11" style="rounded=0;whiteSpace=wrap;html=1;" parent="48Amk8JEZeWpcJgRUddv-3" vertex="1">
          <mxGeometry x="410" y="300" width="110" height="110" as="geometry" />
        </mxCell>
        <mxCell id="761dnnyQ54j-Cl0NHfQN-4659" value="30" style="rounded=0;whiteSpace=wrap;html=1;" parent="48Amk8JEZeWpcJgRUddv-3" vertex="1">
          <mxGeometry x="410" width="300" height="300" as="geometry" />
        </mxCell>
      </root>
    </mxGraphModel>
  </diagram>
</mxfile>
